<svg width="98" height="98" viewBox="0 0 98 98" fill="none" xmlns="http://www.w3.org/2000/svg">
<rect x="1" y="1" width="96" height="96" rx="16" fill="white" fill-opacity="0.2" stroke="url(#paint0_linear_401_192)"/>
<rect x="13" y="13" width="72" height="72" rx="16" fill="white"/>
<g clip-path="url(#clip0_401_192)">
<path d="M53.6087 51.8281C53.1729 49.6825 51.272 48.0625 48.9996 48.0625C46.7273 48.0625 44.8264 49.6824 44.3906 51.8281H53.6087Z" fill="#583FBC"/>
<path d="M57.1472 53.7031H40.0847C39.4915 53.7031 39.0476 54.2472 39.1663 54.8284C39.2296 55.1385 39.2911 55.4349 39.342 55.6703L39.4125 55.9971C40.1068 59.2153 40.5656 61.3413 41.2313 62.7161C41.9963 64.2956 43.1116 65 44.8478 65C45.5601 65 46.5889 64.9177 47.2952 64.2061C48.2066 63.2877 48.1958 61.8483 48.1778 59.4637C48.1751 59.1007 48.1722 58.7256 48.1721 58.3213C48.172 57.8758 48.5136 57.4914 48.9586 57.4697C49.4334 57.4467 49.8271 57.8264 49.8271 58.2962C49.8271 58.7102 49.8242 59.0933 49.8214 59.4637C49.8034 61.8484 49.7926 63.2878 50.7041 64.2061C51.4104 64.9177 52.4391 65 53.1515 65C54.8876 65 56.003 64.2956 56.7679 62.7161C57.4337 61.3413 57.8924 59.2153 58.5868 55.9971L58.6572 55.6706C58.7081 55.4351 58.7696 55.1386 58.8329 54.8284C58.9516 54.2472 58.5077 53.7031 57.9144 53.7031H57.1472Z" fill="#583FBC"/>
<path d="M39.7521 46.1719H58.2476C58.6055 46.1719 58.9321 45.9682 59.0896 45.6468C59.902 43.9885 60.3018 42.1413 60.3121 39.9995V39.9995C60.321 38.1074 59.5875 36.3302 58.247 34.9955C56.9381 33.6924 55.2117 32.9854 53.3835 33.0003C52.3405 33.0094 51.3393 33.2473 50.4081 33.7075C49.5132 34.1497 48.4866 34.1497 47.5916 33.7075C46.6603 33.2474 45.6593 33.0094 44.6165 33.0004C42.7871 32.9837 41.0616 33.6925 39.7528 34.9956C38.4123 36.3303 37.6788 38.1074 37.6877 39.9996C37.698 42.1414 38.0978 43.9885 38.9102 45.6469C39.0676 45.9682 39.3942 46.1719 39.7521 46.1719Z" fill="#583FBC"/>
</g>
<defs>
<linearGradient id="paint0_linear_401_192" x1="1" y1="1" x2="97" y2="97" gradientUnits="userSpaceOnUse">
<stop stop-color="white"/>
<stop offset="1" stop-color="white" stop-opacity="0"/>
</linearGradient>
<clipPath id="clip0_401_192">
<rect width="32" height="32" fill="white" transform="translate(33 33)"/>
</clipPath>
</defs>
</svg>
