<svg width="98" height="98" viewBox="0 0 98 98" fill="none" xmlns="http://www.w3.org/2000/svg">
<rect x="1" y="1" width="96" height="96" rx="16" fill="white" fill-opacity="0.2" stroke="url(#paint0_linear_401_216)"/>
<rect x="13" y="13" width="72" height="72" rx="16" fill="white"/>
<g clip-path="url(#clip0_401_216)">
<path d="M63.6006 46.1243C63.0376 47.8152 62.7947 49.627 62.8955 51.4292C63.1748 56.5132 63.0647 60.3821 58.3167 63.5667C57.8513 63.8784 57.3098 64.0432 56.75 64.0432H52.6875C51.1367 64.0432 49.875 62.7815 49.875 61.2307V55.6641C49.875 55.134 49.4651 54.6609 48.9133 54.6667C48.4199 54.6765 48 55.105 48 55.6021V61.2307C48 62.7815 46.7383 64.0432 45.1875 64.0432H41.4375C40.9016 64.0432 40.3794 63.8911 39.9272 63.6033C34.9734 60.4497 34.6477 56.5786 34.9883 51.2854C35.0967 49.605 34.8713 47.8616 34.3352 46.1758C33.5195 46.8643 33 47.8933 33 49.0417V64.0432C33 64.561 33.4197 64.9807 33.9375 64.9807H64.0625C64.5803 64.9807 65 64.561 65 64.0432V49.0432C65 47.865 64.4531 46.8123 63.6006 46.1243Z" fill="#583FBC"/>
<path d="M36.8595 51.4057C36.5384 56.395 36.8187 59.4016 40.9342 62.0217C41.2172 62.2016 41.4012 62.1682 42.1017 62.1682C41.5629 59.8935 40.5001 55.0088 40.5001 51.8557C40.5001 50.3369 40.9288 48.8296 41.7211 47.5195C41.7491 46.8982 41.7633 44.6596 40.6576 43.001C40.3705 42.57 40.4867 41.988 40.9176 41.7009C41.3483 41.4135 41.9305 41.53 42.2176 41.9609C42.7313 42.7312 43.0587 43.5749 43.2655 44.3772C43.798 43.0901 44.2501 41.6721 44.2501 40.6057C44.2501 40.0881 44.6698 39.6682 45.1876 39.6682C45.7054 39.6682 46.1251 40.0881 46.1251 40.6057C46.1251 41.7226 45.7772 43.0285 45.3324 44.2422C45.8116 44.0114 46.3116 43.8247 46.826 43.6897C47.3268 43.5588 47.8395 43.8581 47.9706 44.3589C48.1019 44.8598 47.8024 45.3723 47.3016 45.5034C44.4469 46.2519 42.3751 48.9233 42.3751 51.8557C42.3751 54.9961 43.5604 60.2185 44.0309 62.1682H45.1876C45.7054 62.1682 46.1251 61.7485 46.1251 61.2307V55.602C46.1251 54.083 47.3607 52.8225 48.8795 52.792C50.4645 52.7634 51.7501 54.072 51.7501 55.664V61.2307C51.7501 61.7485 52.1698 62.1682 52.6876 62.1682H53.8444C54.3148 60.218 55.5001 54.9936 55.5001 51.8557C55.5001 49.0219 53.6932 46.521 51.0135 45.6281C50.5223 45.4643 50.2567 44.9336 50.4205 44.4421C50.5841 43.9511 51.1151 43.6853 51.6063 43.8491C51.8483 43.9299 52.0841 44.0217 52.3146 44.122C52.0189 42.6557 52.4037 41.6438 52.861 41.0002C53.1608 40.5781 53.7462 40.4792 54.1683 40.779C54.5902 41.0788 54.6893 41.664 54.3895 42.0862C53.8846 42.7966 54.0751 43.8237 54.4869 44.7873C54.7482 44.2575 55.1024 43.6865 55.5809 43.1426C55.923 42.7539 56.5153 42.7158 56.9042 43.0578C57.2928 43.3999 57.3307 43.9922 56.9886 44.3811C56.1937 45.2849 55.8522 46.3049 55.7194 46.8315C56.8251 48.3257 57.3751 50.0888 57.3751 51.8557C57.3751 55.0088 56.3124 59.8935 55.7736 62.1682C56.7743 62.1682 56.9679 62.2136 57.2723 62.0093C59.1278 60.7649 60.1854 59.4219 60.7015 57.6543C61.9 53.5486 59.8307 49.989 62.3026 44.27C65.5145 36.8325 57.8973 30.2097 51.1505 34.2011C49.8048 34.9966 48.1329 34.9968 46.7875 34.2014C40.0802 30.2334 32.4777 36.7561 35.6 44.1863C36.5782 46.5173 37.0138 49.0136 36.8595 51.4057Z" fill="#583FBC"/>
</g>
<defs>
<linearGradient id="paint0_linear_401_216" x1="1" y1="1" x2="97" y2="97" gradientUnits="userSpaceOnUse">
<stop stop-color="white"/>
<stop offset="1" stop-color="white" stop-opacity="0"/>
</linearGradient>
<clipPath id="clip0_401_216">
<rect width="32" height="32" fill="white" transform="translate(33 33)"/>
</clipPath>
</defs>
</svg>
